<svg xmlns:inkscape="http://www.inkscape.org/namespaces/inkscape" xmlns:sodipodi="http://sodipodi.sourceforge.net/DTD/sodipodi-0.dtd" xmlns="http://www.w3.org/2000/svg" xmlns:svg="http://www.w3.org/2000/svg" version="1.1" id="svg1" sodipodi:docname="upload_ibsmiiiljam3h3hbq3eechqfj2.pdf" viewBox="49.1 244.67 1024.33 253.62">
  <defs id="defs1">
    <clipPath clipPathUnits="userSpaceOnUse" id="clipPath2">
      <path d="M 0,595.28 H 841.89 V 0 H 0 Z" transform="translate(-129.0024,-227.334)" id="path2"/>
    </clipPath>
    <clipPath clipPathUnits="userSpaceOnUse" id="clipPath4">
      <path d="M 0,595.28 H 841.89 V 0 H 0 Z" transform="translate(-159.5005,-385.74851)" id="path4"/>
    </clipPath>
    <clipPath clipPathUnits="userSpaceOnUse" id="clipPath6">
      <path d="M 0,595.28 H 841.89 V 0 H 0 Z" id="path6"/>
    </clipPath>
    <clipPath clipPathUnits="userSpaceOnUse" id="clipPath8">
      <path d="M 0,595.28 H 841.89 V 0 H 0 Z" transform="translate(-643.54301,-331.22751)" id="path8"/>
    </clipPath>
    <clipPath clipPathUnits="userSpaceOnUse" id="clipPath10">
      <path d="M 0,595.28 H 841.89 V 0 H 0 Z" transform="translate(-212.49511,-243.5625)" id="path10"/>
    </clipPath>
    <clipPath clipPathUnits="userSpaceOnUse" id="clipPath12">
      <path d="M 0,595.28 H 841.89 V 0 H 0 Z" transform="translate(-256.12701,-255.03911)" id="path12"/>
    </clipPath>
    <clipPath clipPathUnits="userSpaceOnUse" id="clipPath14">
      <path d="M 0,595.28 H 841.89 V 0 H 0 Z" transform="translate(-291.74121,-273.02441)" id="path14"/>
    </clipPath>
    <clipPath clipPathUnits="userSpaceOnUse" id="clipPath16">
      <path d="M 0,595.28 H 841.89 V 0 H 0 Z" transform="translate(-335.57231,-283.7139)" id="path16"/>
    </clipPath>
    <clipPath clipPathUnits="userSpaceOnUse" id="clipPath18">
      <path d="M 0,595.28 H 841.89 V 0 H 0 Z" transform="translate(-378.44241,-255.03911)" id="path18"/>
    </clipPath>
    <clipPath clipPathUnits="userSpaceOnUse" id="clipPath20">
      <path d="M 0,595.28 H 841.89 V 0 H 0 Z" transform="translate(-418.15231,-285.3252)" id="path20"/>
    </clipPath>
    <clipPath clipPathUnits="userSpaceOnUse" id="clipPath22">
      <path d="M 0,595.28 H 841.89 V 0 H 0 Z" transform="translate(-475.21681,-283.7139)" id="path22"/>
    </clipPath>
    <clipPath clipPathUnits="userSpaceOnUse" id="clipPath24">
      <path d="M 0,595.28 H 841.89 V 0 H 0 Z" transform="translate(-520.79392,-243.5625)" id="path24"/>
    </clipPath>
    <clipPath clipPathUnits="userSpaceOnUse" id="clipPath26">
      <path d="M 0,595.28 H 841.89 V 0 H 0 Z" transform="translate(-566.68162,-283.7139)" id="path26"/>
    </clipPath>
    <clipPath clipPathUnits="userSpaceOnUse" id="clipPath28">
      <path d="M 0,595.28 H 841.89 V 0 H 0 Z" transform="translate(-608.51462,-255.03911)" id="path28"/>
    </clipPath>
    <clipPath clipPathUnits="userSpaceOnUse" id="clipPath30">
      <path d="M 0,595.28 H 841.89 V 0 H 0 Z" transform="translate(-653.56052,-273.02441)" id="path30"/>
    </clipPath>
    <clipPath clipPathUnits="userSpaceOnUse" id="clipPath32">
      <path d="M 0,595.28 H 841.89 V 0 H 0 Z" transform="translate(-678.81052,-273.02441)" id="path32"/>
    </clipPath>
    <clipPath clipPathUnits="userSpaceOnUse" id="clipPath34">
      <path d="M 0,595.28 H 841.89 V 0 H 0 Z" transform="translate(-723.69532,-282.55271)" id="path34"/>
    </clipPath>
    <clipPath clipPathUnits="userSpaceOnUse" id="clipPath36">
      <path d="M 0,595.28 H 841.89 V 0 H 0 Z" transform="translate(-741.15822,-265.9053)" id="path36"/>
    </clipPath>
    <clipPath clipPathUnits="userSpaceOnUse" id="clipPath38">
      <path d="M 0,595.28 H 841.89 V 0 H 0 Z" transform="translate(-805.0684,-273.96)" id="path38"/>
    </clipPath>
  </defs>
  <sodipodi:namedview id="namedview1" pagecolor="#ffffff" bordercolor="#000000" borderopacity="0.25" inkscape:showpageshadow="2" inkscape:pageopacity="0.0" inkscape:pagecheckerboard="0" inkscape:deskcolor="#d1d1d1">
    <inkscape:page x="0" y="0" inkscape:label="1" id="page1" width="1122.52" height="793.70667" margin="295.41068 49.096001 244.67334 49.095734" bleed="0"/>
  </sodipodi:namedview>
  <g id="layer-MC0" inkscape:groupmode="layer" inkscape:label="Capa 1">
    <path id="path1" d="m 0,0 c -9.994,-3.734 -20.814,-5.776 -32.112,-5.776 -8.977,0 -17.654,1.289 -25.853,3.691 -1.428,0.418 -0.872,0.278 -0.872,0.278 -19.237,5.82 -33.344,23.811 -33.344,44.953 v 25.353 h 47.141 l -0.004,-21.094 c 0,-7.08 5.741,-12.82 12.823,-12.82 7.053,0 12.773,5.692 12.823,12.734 0,0.03 -0.01,78.766 -0.01,78.766 H 27.873 L 27.855,42.513 C 27.855,23.176 16,6.607 -0.839,-0.319 Z" style="fill:#479ada;fill-opacity:1;fill-rule:nonzero;stroke:none" transform="matrix(1.3333333,0,0,-1.3333333,172.0032,490.59467)" clip-path="url(#clipPath2)"/>
    <path id="path3" d="m 0,0 c -0.019,-14.049 -11.69,-25.973 -25.924,-25.931 -14.37,-0.026 -25.995,11.906 -26.007,25.981 -0.041,14.052 11.628,25.977 25.949,25.977 C -11.67,26.027 0.019,14.126 0,0" style="fill:#479ada;fill-opacity:1;fill-rule:nonzero;stroke:none" transform="matrix(1.3333333,0,0,-1.3333333,212.66733,279.37533)" clip-path="url(#clipPath4)"/>
    <path id="path5" d="m 36.822,306.32 h 47.141 v 47.099 H 36.822 Z" style="fill:#000000;fill-opacity:1;fill-rule:nonzero;stroke:none" transform="matrix(1.3333333,0,0,-1.3333333,0,793.70667)" clip-path="url(#clipPath6)"/>
    <path id="path7" d="m 0,0 c -3.054,-3.027 -4.577,-6.815 -4.577,-11.375 0,-4.559 1.523,-8.352 4.577,-11.378 3.052,-3.025 7.672,-4.54 12.242,-4.54 2.915,0 4.58,0.623 8.619,1.853 v 5.77 c -4.039,-2.143 -5.559,-3.223 -8.619,-3.223 -3.148,0 -6.21,1.13 -8.401,3.393 -2.184,2.258 -3.478,4.967 -3.478,8.125 0,3.201 0.992,5.923 3.178,8.159 2.181,2.237 5.604,3.356 8.748,3.356 3.063,0 4.533,-1.069 8.572,-3.194 v 5.74 C 16.822,3.917 15.157,4.539 12.242,4.539 7.672,4.539 3.052,3.028 0,0 m 138.36,-21.118 c -1.57,-1.018 -3.551,-1.526 -5.95,-1.526 -5.059,0 -7.592,2.373 -7.592,7.127 0,2.185 0.904,3.86 2.685,5.021 1.481,0.971 3.277,1.455 5.365,1.455 2.045,0 3.879,-0.509 5.492,-1.527 1.96,-1.213 2.942,-2.863 2.942,-4.949 0,-2.476 -0.982,-4.339 -2.942,-5.601 m -4.848,25.853 c -2.9,0 -5.978,-0.511 -9.219,-1.52 v -4.417 c 3.049,0.936 5.802,1.39 8.257,1.39 6.492,0 9.737,-1.83 9.737,-6.32 v -2.71 c -1.917,2.535 -4.873,3.967 -9.337,3.967 -3.606,0 -6.17,-0.895 -8.572,-2.688 -2.662,-1.964 -3.99,-4.676 -3.99,-8.134 0,-3.587 1.098,-6.383 3.31,-8.391 2.216,-2.004 5.147,-3.009 8.797,-3.009 4.726,0 7.945,1.666 9.664,4.993 h 0.128 v -3.969 h 4.217 v 18.342 c 0,8.309 -3.385,12.466 -12.992,12.466 M -257.963,-8.868 c -7.738,1.165 -9.256,1.522 -9.256,4.534 0,4.474 4.075,4.962 7.149,4.962 3.969,0 7.256,-1.28 7.643,-6.019 h 4.452 c -0.441,6.077 -3.819,9.475 -12.095,9.475 -7.394,0 -11.373,-2.938 -11.373,-7.955 0,-5.124 3.219,-7.753 11.13,-8.763 5.063,-0.642 9.774,-1.608 9.774,-5.299 0,-4.531 -3.729,-4.75 -8.773,-4.75 -4.835,0 -7.466,1.021 -7.466,5.985 h -5.139 c 0,-6.969 4.798,-9.98 12.876,-9.98 7.98,0 12.773,2.5 12.773,8.499 0,5.63 -3.913,8.14 -11.695,9.311 M -50.83,-17.303 -81.281,19.6 h -2.87 v -45.439 h 4.039 v 37.033 l 29.169,-37.033 h 4.152 V 19.6 h -4.039 z m -300.054,-1.725 -10.601,23.481 h -4.454 l 13.725,-30.292 h 3.04 l 13.401,30.292 h -4.992 z m 421.64,-0.728 c -2.248,-2.327 -4.993,-3.494 -8.239,-3.494 -3.243,0 -5.99,1.167 -8.242,3.494 -2.248,2.333 -3.377,5.127 -3.377,8.381 0,3.299 1.129,6.106 3.377,8.411 2.252,2.308 4.999,3.465 8.242,3.465 3.246,0 5.991,-1.157 8.239,-3.465 2.255,-2.305 3.38,-5.112 3.38,-8.411 0,-3.254 -1.125,-6.048 -3.38,-8.381 M 62.517,4.539 C 57.944,4.539 54.142,3.028 51.082,0 c -3.049,-3.027 -4.574,-6.815 -4.574,-11.375 0,-4.559 1.525,-8.352 4.574,-11.378 3.06,-3.025 6.862,-4.54 11.435,-4.54 4.569,0 8.382,1.515 11.431,4.54 3.057,3.026 4.584,6.819 4.584,11.378 0,4.56 -1.527,8.348 -4.584,11.375 -3.049,3.028 -6.862,4.539 -11.431,4.539 m -83.015,-25.657 c -1.572,-1.018 -3.552,-1.526 -5.949,-1.526 -5.061,0 -7.586,2.373 -7.586,7.127 0,2.185 0.891,3.86 2.679,5.021 1.484,0.971 3.273,1.455 5.366,1.455 2.048,0 3.877,-0.509 5.49,-1.527 1.961,-1.213 2.946,-2.863 2.946,-4.949 0,-2.476 -0.985,-4.339 -2.946,-5.601 M -25.35,4.735 c -2.895,0 -5.974,-0.511 -9.217,-1.52 v -4.417 c 3.052,0.936 5.804,1.39 8.254,1.39 6.496,0 9.741,-1.83 9.741,-6.32 v -2.71 c -1.918,2.535 -4.868,3.967 -9.336,3.967 -3.609,0 -6.165,-0.895 -8.571,-2.688 -2.662,-1.964 -3.995,-4.676 -3.995,-8.134 0,-3.587 1.106,-6.383 3.313,-8.391 2.214,-2.004 5.146,-3.009 8.797,-3.009 4.726,0 7.948,1.666 9.667,4.993 h 0.125 v -3.969 h 4.22 v 18.342 c 0,8.309 -3.385,12.466 -12.998,12.466 m -142.1,-25.853 c -1.567,-1.018 -3.549,-1.526 -5.95,-1.526 -5.054,0 -7.582,2.373 -7.582,7.127 0,2.185 0.893,3.86 2.679,5.021 1.481,0.971 3.273,1.455 5.363,1.455 2.048,0 3.883,-0.509 5.49,-1.527 1.964,-1.213 2.946,-2.863 2.946,-4.949 0,-2.476 -0.982,-4.339 -2.946,-5.601 m -4.844,25.853 c -2.902,0 -5.977,-0.511 -9.221,-1.52 v -4.417 c 3.051,0.936 5.802,1.39 8.254,1.39 6.495,0 9.739,-1.83 9.739,-6.32 v -2.71 c -1.918,2.535 -4.869,3.967 -9.339,3.967 -3.606,0 -6.164,-0.895 -8.569,-2.688 -2.663,-1.964 -3.992,-4.676 -3.992,-8.134 0,-3.587 1.102,-6.383 3.315,-8.391 2.211,-2.004 5.146,-3.009 8.798,-3.009 4.725,0 7.944,1.666 9.663,4.993 h 0.124 v -3.969 h 4.221 v 18.342 c 0,8.309 -3.384,12.466 -12.993,12.466 m -118.624,-6.179 h -0.191 v 4.866 h -4.227 V -26.01 h 4.227 v 14.154 c 0,7.068 3.264,11.239 7.897,11.239 1.402,0 2.57,-0.384 3.504,-1.154 l 2.066,4.064 c -1.529,0.974 -3.102,1.463 -4.713,1.463 -3.912,0 -7.034,-1.4 -8.563,-5.2 m -37.003,-6.843 c 0.413,2.662 1.561,4.822 3.442,6.482 1.881,1.66 4.164,2.494 6.845,2.494 5.773,0 9.1,-2.994 9.975,-8.976 z m 10.26,13.022 c -4.739,0 -8.389,-1.537 -10.952,-4.603 -2.434,-2.859 -3.65,-6.691 -3.65,-11.506 0,-4.56 1.301,-8.291 3.906,-11.184 2.691,-3.028 6.297,-4.539 10.824,-4.539 2.947,0 5.647,0.731 8.104,2.178 2.453,1.45 4.385,3.455 5.796,6.02 l -3.354,1.91 c -2.342,-3.882 -6.805,-6.158 -10.423,-6.158 -2.642,0 -6.055,1.549 -7.759,3.557 -1.618,1.877 -2.682,4.81 -2.727,7.547 h 24.263 v 0.888 c 0,4.723 -1.136,8.487 -3.396,11.295 -2.435,3.062 -5.978,4.595 -10.632,4.595 m 474.14,-30.808 h 4.327 v 46.64 h -4.327 z M 34.292,14.388 c -0.798,0 -1.468,-0.285 -2.019,-0.851 -0.552,-0.567 -0.825,-1.25 -0.825,-2.042 0,-0.801 0.273,-1.466 0.825,-2.001 0.551,-0.534 1.221,-0.805 2.019,-0.805 0.8,0 1.472,0.271 2.025,0.805 0.549,0.535 0.827,1.2 0.827,2.001 0,0.792 -0.278,1.475 -0.827,2.042 -0.553,0.566 -1.225,0.851 -2.025,0.851 m -2.168,-40.461 h 4.334 V 3.456 h -4.334 z m -269.619,0 h 4.327 V 3.456 h -4.327 z m 2.084,40.461 c -0.797,0 -1.47,-0.285 -2.023,-0.851 -0.549,-0.567 -0.825,-1.25 -0.825,-2.042 0,-0.801 0.276,-1.466 0.825,-2.001 0.553,-0.534 1.226,-0.805 2.023,-0.805 0.797,0 1.472,0.271 2.023,0.805 0.55,0.535 0.827,1.2 0.827,2.001 0,0.792 -0.277,1.475 -0.827,2.042 -0.551,0.566 -1.226,0.851 -2.023,0.851 m -142.537,-40.461 h 4.326 V 3.456 h -4.326 z m 2.084,40.461 c -0.796,0 -1.47,-0.285 -2.021,-0.851 -0.552,-0.567 -0.827,-1.25 -0.827,-2.042 0,-0.801 0.275,-1.466 0.827,-2.001 0.551,-0.534 1.225,-0.805 2.021,-0.805 0.795,0 1.471,0.271 2.022,0.805 0.55,0.535 0.827,1.2 0.827,2.001 0,0.792 -0.277,1.475 -0.827,2.042 -0.551,0.566 -1.227,0.851 -2.022,0.851 M 99.485,4.187 c -3.541,0 -6.454,-1.52 -8.297,-4.767 v 4.036 h -4.241 v -29.535 h 4.241 v 13.3 c 0,3.745 0.044,6.407 0.678,7.982 1.059,2.64 3.37,4.817 7.684,4.817 2.669,0 4.839,-1.511 5.807,-3.13 0.721,-1.192 0.93,-3.391 0.93,-6.287 v -16.682 h 4.325 v 17.697 c 0,8.648 -5.093,12.569 -11.127,12.569 m -499.112,0 c -3.54,0 -6.453,-1.52 -8.296,-4.767 v 4.036 h -4.242 v -29.535 h 4.242 v 13.3 c 0,3.745 0.046,6.407 0.681,7.982 1.059,2.64 3.367,4.817 7.68,4.817 2.668,0 4.837,-1.511 5.811,-3.13 0.718,-1.192 0.926,-3.391 0.926,-6.287 v -16.682 h 4.325 v 17.697 c 0,8.648 -5.09,12.569 -11.127,12.569 m -27.112,-10.362 c 0,-10.121 -5.347,-16.473 -13.117,-16.473 -7.773,0 -13.041,6.352 -13.041,16.473 v 26.271 h -4.636 V -8.332 c 0,-5.506 1.558,-9.972 4.675,-13.385 3.204,-3.586 7.536,-5.38 13.002,-5.38 5.464,0 9.798,1.794 13.001,5.38 3.115,3.413 4.675,7.879 4.675,13.385 v 28.428 h -4.559 z m 298.932,-12.888 c -1.871,-2.207 -4.443,-3.31 -7.727,-3.31 -3.147,0 -5.658,1.149 -7.52,3.442 -1.734,2.073 -2.601,4.68 -2.601,7.815 0,3.093 0.889,5.674 2.664,7.748 1.873,2.25 4.358,3.377 7.457,3.377 3.189,0 5.721,-1.072 7.595,-3.212 1.866,-2.144 2.8,-4.778 2.8,-7.913 0,-3.225 -0.89,-5.873 -2.668,-7.947 m 2.831,17.969 c -2.609,3.885 -6.103,5.829 -10.465,5.829 -4.282,0 -7.749,-1.579 -10.401,-4.733 -2.485,-2.939 -3.724,-6.582 -3.724,-10.93 0,-4.558 1.239,-8.331 3.724,-11.314 2.652,-3.237 6.207,-4.855 10.657,-4.855 4.238,0 7.642,1.897 10.209,5.701 v -4.677 h 4.553 v 46.424 h -4.553 z m -77.286,-17.969 c -1.869,-2.207 -4.442,-3.31 -7.726,-3.31 -3.144,0 -5.655,1.149 -7.524,3.442 -1.73,2.073 -2.599,4.68 -2.599,7.815 0,3.093 0.89,5.674 2.668,7.748 1.869,2.25 4.353,3.377 7.455,3.377 3.192,0 5.721,-1.072 7.592,-3.212 1.869,-2.144 2.806,-4.778 2.806,-7.913 0,-3.225 -0.892,-5.873 -2.672,-7.947 m 2.831,17.969 c -2.609,3.885 -6.098,5.829 -10.465,5.829 -4.278,0 -7.747,-1.579 -10.4,-4.733 -2.485,-2.939 -3.725,-6.582 -3.725,-10.93 0,-4.558 1.24,-8.331 3.725,-11.314 2.653,-3.237 6.206,-4.855 10.659,-4.855 4.238,0 7.641,1.897 10.206,5.701 v -4.677 h 4.556 v 46.424 h -4.556 z" style="fill:#fff;fill-opacity:1;fill-rule:nonzero;stroke:none" transform="matrix(1.3333333,0,0,-1.3333333,858.05733,352.07)" clip-path="url(#clipPath8)"/>
    <path id="path9" d="m 0,0 h -17.399 l -3.346,-8.445 h -13.408 l 18.682,48.596 H -1.673 L 16.635,-8.445 H 3.157 Z m -3.409,9.671 -5.154,15.47 h -0.13 l -5.224,-15.47 z" style="fill:#479ada;fill-opacity:1;fill-rule:nonzero;stroke:none" transform="matrix(1.3333333,0,0,-1.3333333,283.3268,468.95667)" clip-path="url(#clipPath10)"/>
    <path id="path11" d="M 0,0 15.272,-19.922 H -0.525 L -12.514,-1.22 v -18.702 h -12.61 v 48.597 h 18.868 c 5.061,0 9.096,-1.211 12.045,-3.615 3.232,-2.567 4.834,-6.342 4.834,-11.34 C 10.623,10.248 9.734,7.287 7.92,4.838 5.992,2.218 3.351,0.602 0,0 M -12.514,19.016 V 6.901 h 1.235 c 5.836,0 8.768,2.006 8.768,6.052 0,4.031 -2.932,6.063 -8.768,6.063 z" style="fill:#479ada;fill-opacity:1;fill-rule:nonzero;stroke:none" transform="matrix(1.3333333,0,0,-1.3333333,341.50267,453.65453)" clip-path="url(#clipPath12)"/>
    <path id="path13" d="M 0,0 V -37.895 H -12.629 V 0 H -23.078 V 10.689 H 10.433 L 10.433,0 Z" style="fill:#479ada;fill-opacity:1;fill-rule:nonzero;stroke:none" transform="matrix(1.3333333,0,0,-1.3333333,388.98827,429.67413)" clip-path="url(#clipPath14)"/>
    <path id="path15" d="m 0,0 h 12.627 v -27.331 c 0,-3.938 -0.237,-7 -0.714,-9.145 -0.776,-3.222 -2.232,-5.879 -4.381,-7.987 -3.703,-3.604 -9.065,-5.415 -16.099,-5.415 -7.05,0 -12.426,1.811 -16.117,5.415 -2.153,2.108 -3.612,4.765 -4.374,7.987 -0.481,2.145 -0.716,5.207 -0.716,9.145 V 0 h 12.628 v -25.579 c 0,-4.127 0.404,-7.117 1.225,-8.963 1.287,-2.835 3.735,-4.251 7.354,-4.251 3.607,0 6.048,1.416 7.337,4.251 0.823,1.846 1.23,4.836 1.23,8.963 z" style="fill:#479ada;fill-opacity:1;fill-rule:nonzero;stroke:none" transform="matrix(1.3333333,0,0,-1.3333333,447.42973,415.42147)" clip-path="url(#clipPath16)"/>
    <path id="path17" d="M 0,0 15.278,-19.922 H -0.521 L -12.504,-1.22 v -18.702 h -12.627 v 48.597 h 18.883 c 5.072,0 9.083,-1.211 12.05,-3.615 3.223,-2.567 4.845,-6.342 4.845,-11.34 0,-3.472 -0.913,-6.433 -2.726,-8.882 C 6.005,2.218 3.352,0.602 0,0 M -12.504,19.016 V 6.901 h 1.224 c 5.848,0 8.765,2.006 8.765,6.052 0,4.031 -2.917,6.063 -8.765,6.063 z" style="fill:#479ada;fill-opacity:1;fill-rule:nonzero;stroke:none" transform="matrix(1.3333333,0,0,-1.3333333,504.58987,453.65453)" clip-path="url(#clipPath18)"/>
    <path id="path19" d="m 0,0 c 7.22,0 13.445,-2.322 18.694,-6.954 5.455,-4.867 8.177,-10.874 8.177,-18.053 0,-7.851 -2.525,-14.295 -7.575,-19.296 -5.05,-5.008 -11.47,-7.503 -19.296,-7.503 -7.813,0 -14.251,2.495 -19.294,7.503 -5.052,5.001 -7.58,11.445 -7.58,19.296 0,7.179 2.743,13.186 8.19,18.053 C -13.446,-2.322 -7.218,0 0,0 m 0,-12.242 c -3.741,0 -6.961,-1.294 -9.672,-3.869 -2.694,-2.577 -4.043,-5.564 -4.043,-8.954 0,-4.13 1.331,-7.563 3.983,-10.343 2.666,-2.779 5.908,-4.153 9.732,-4.153 3.822,0 7.068,1.374 9.725,4.153 2.67,2.78 4.004,6.213 4.004,10.343 0,3.39 -1.354,6.377 -4.051,8.954 -2.709,2.575 -5.927,3.869 -9.678,3.869" style="fill:#479ada;fill-opacity:1;fill-rule:nonzero;stroke:none" transform="matrix(1.3333333,0,0,-1.3333333,557.5364,413.27307)" clip-path="url(#clipPath20)"/>
    <path id="path21" d="m 0,0 h 12.628 v -32.804 c 0,-5.286 -1.34,-9.407 -4.003,-12.361 -2.831,-3.145 -6.874,-4.713 -12.107,-4.713 -5.248,0 -9.408,2.386 -12.51,7.16 l 7.284,7.666 c 2.018,-2.764 3.708,-4.133 5.096,-4.133 1.633,0 2.706,0.861 3.229,2.581 C -0.13,-35.699 0,-34.176 0,-32.03 Z" style="fill:#479ada;fill-opacity:1;fill-rule:nonzero;stroke:none" transform="matrix(1.3333333,0,0,-1.3333333,633.6224,415.42147)" clip-path="url(#clipPath22)"/>
    <path id="path23" d="m 0,0 h -17.412 l -3.332,-8.445 h -13.402 l 18.678,48.596 H -1.677 L 16.63,-8.445 H 3.151 Z m -3.413,9.671 -5.157,15.47 h -0.123 l -5.234,-15.47 z" style="fill:#479ada;fill-opacity:1;fill-rule:nonzero;stroke:none" transform="matrix(1.3333333,0,0,-1.3333333,694.39187,468.95667)" clip-path="url(#clipPath24)"/>
    <path id="path25" d="m 0,0 h 12.647 v -27.331 c 0,-3.938 -0.23,-7 -0.704,-9.145 -0.794,-3.222 -2.25,-5.879 -4.39,-7.987 -3.705,-3.604 -9.077,-5.415 -16.118,-5.415 -7.041,0 -12.417,1.811 -16.111,5.415 -2.143,2.108 -3.606,4.765 -4.375,7.987 -0.476,2.145 -0.708,5.207 -0.708,9.145 V 0 h 12.621 v -25.579 c 0,-4.127 0.404,-7.117 1.232,-8.963 1.288,-2.835 3.727,-4.251 7.341,-4.251 3.619,0 6.059,1.416 7.34,4.251 0.829,1.846 1.225,4.836 1.225,8.963 z" style="fill:#479ada;fill-opacity:1;fill-rule:nonzero;stroke:none" transform="matrix(1.3333333,0,0,-1.3333333,755.57547,415.42147)" clip-path="url(#clipPath26)"/>
    <path id="path27" d="M 0,0 15.277,-19.922 H -0.529 L -12.495,-1.22 v -18.702 h -12.632 v 48.597 h 18.874 c 5.066,0 9.095,-1.211 12.039,-3.615 3.24,-2.567 4.831,-6.342 4.831,-11.34 0,-3.472 -0.89,-6.433 -2.691,-8.882 C 5.99,2.218 3.35,0.602 0,0 M -12.495,19.016 V 6.901 h 1.21 c 5.845,0 8.765,2.006 8.765,6.052 0,4.031 -2.92,6.063 -8.765,6.063 z" style="fill:#479ada;fill-opacity:1;fill-rule:nonzero;stroke:none" transform="matrix(1.3333333,0,0,-1.3333333,811.3528,453.65453)" clip-path="url(#clipPath28)"/>
    <path id="path29" d="m 0,0 h -15.022 v -8.126 h 14.253 v -10.701 h -14.253 v -8.367 H 0 v -10.701 h -27.643 v 48.584 l 27.643,0 z" style="fill:#479ada;fill-opacity:1;fill-rule:nonzero;stroke:none" transform="matrix(1.3333333,0,0,-1.3333333,871.414,429.67413)" clip-path="url(#clipPath30)"/>
    <path id="path31" d="M 0,0 V -37.895 H -12.632 V 0 H -23.075 V 10.689 H 10.43 L 10.43,0 Z" style="fill:#479ada;fill-opacity:1;fill-rule:nonzero;stroke:none" transform="matrix(1.3333333,0,0,-1.3333333,905.08067,429.67413)" clip-path="url(#clipPath32)"/>
    <path id="path33" d="m 0,0 v -15.138 c -2.617,3.565 -6.318,5.335 -11.083,5.335 -3.83,0 -6.945,-1.282 -9.343,-3.859 -2.405,-2.576 -3.602,-5.781 -3.602,-9.6 0,-3.863 1.197,-7.037 3.621,-9.498 2.42,-2.475 5.603,-3.711 9.504,-3.711 4.381,0 8.025,1.714 10.903,5.152 v -15.142 c -4.902,-1.508 -8.622,-2.256 -11.155,-2.256 -6.92,0 -12.979,2.375 -18.198,7.128 -5.218,4.737 -7.831,10.874 -7.831,18.391 0,6.96 2.375,12.89 7.149,17.783 5.117,5.243 11.278,7.869 18.498,7.869 C -7.8,2.454 -3.959,1.635 0,0" style="fill:#479ada;fill-opacity:1;fill-rule:nonzero;stroke:none" transform="matrix(1.3333333,0,0,-1.3333333,964.92707,416.96973)" clip-path="url(#clipPath34)"/>
    <path id="path35" d="m 0,0 h 18.246 v 18.751 h 12.64 v -48.59 H 18.246 V -9.924 H 0 v -19.915 h -12.626 v 48.59 H 0 Z" style="fill:#479ada;fill-opacity:1;fill-rule:nonzero;stroke:none" transform="matrix(1.3333333,0,0,-1.3333333,988.21093,439.16627)" clip-path="url(#clipPath36)"/>
    <path id="path37" d="m 0,0 h -15.011 v -8.111 h 14.24 v -10.705 h -14.24 v -8.389 H 0 v -10.682 h -27.648 v 48.578 l 27.648,0 z" style="fill:#479ada;fill-opacity:1;fill-rule:nonzero;stroke:none" transform="matrix(1.3333333,0,0,-1.3333333,1073.4245,428.42667)" clip-path="url(#clipPath38)"/>
  </g>
</svg>